<svg width="404.58125px" height="122px" xmlns="http://www.w3.org/2000/svg" viewBox="47.709374999999994 14 404.58125 122" style="background: rgba(5, 17, 3, 0);" preserveAspectRatio="xMidYMid"><defs><linearGradient id="editing-glowing-gradient" x1="0" x2="1" y1="0.5" y2="0.5"><stop offset="0" stop-color="#67ff43"></stop><stop offset="1" stop-color="#90ffff"></stop></linearGradient><filter id="editing-glowing" x="-100%" y="-100%" width="300%" height="300%"><feGaussianBlur in="SourceGraphic" result="blur" stdDeviation="1"></feGaussianBlur><feMerge><feMergeNode in="blur"></feMergeNode><feMergeNode in="SourceGraphic"></feMergeNode></feMerge></filter></defs><g filter="url(#editing-glowing)"><g transform="translate(109.72263669967651, 104.47000122070312)"><path d="M20.22-22.46L20.22-22.46L20.22-22.46Q21.12-24.83 21.12-26.88L21.12-26.88L21.12-26.88Q21.12-30.66 18.05-30.66L18.05-30.66L18.05-30.66Q16.45-30.66 15.14-29.22L15.14-29.22L15.14-29.22Q13.82-27.78 13.82-25.98L13.82-25.98L13.82-25.98Q13.82-24.70 14.85-23.68L14.85-23.68L14.85-23.68Q16.32-22.27 20.10-19.97L20.10-19.97L20.10-19.97Q23.87-17.66 25.31-15.78L25.31-15.78L25.31-15.78Q26.75-13.89 26.75-11.30L26.75-11.30L26.75-11.30Q26.75-8.70 25.50-6.34L25.50-6.34L25.50-6.34Q24.26-3.97 22.02-2.30L22.02-2.30L22.02-2.30Q17.22 1.28 9.54 1.28L9.54 1.28L9.54 1.28Q5.38 1.28 2.18-0.90L2.18-0.90L2.18-0.90Q-1.02-3.01-1.02-5.50L-1.02-5.50L-1.02-5.50Q-1.02-8 0.80-9.47L0.80-9.47L0.80-9.47Q2.62-10.94 5.31-10.94L5.31-10.94L5.31-10.94Q8-10.94 9.66-9.92L9.66-9.92L9.66-9.92Q8.83-7.81 8.83-6.40L8.83-6.40L8.83-6.40Q8.83-2.18 12.42-2.18L12.42-2.18L12.42-2.18Q13.95-2.18 14.98-3.14L14.98-3.14L14.98-3.14Q16-4.10 16-5.76L16-5.76L16-5.76Q16-9.02 10.50-12.48L10.50-12.48L10.50-12.48Q6.02-15.42 4.99-16.58L4.99-16.58L4.99-16.58Q3.26-18.62 3.26-21.18L3.26-21.18L3.26-21.18Q3.26-23.74 4.48-26.18L4.48-26.18L4.48-26.18Q5.70-28.61 7.94-30.34L7.94-30.34L7.94-30.34Q12.61-33.92 20.74-33.92L20.74-33.92L20.74-33.92Q24.90-33.92 27.36-32.26L27.36-32.26L27.36-32.26Q29.82-30.59 29.82-27.78L29.82-27.78L29.82-27.78Q29.82-24.96 28.13-23.36L28.13-23.36L28.13-23.36Q26.43-21.76 23.36-21.76L23.36-21.76L23.36-21.76Q21.25-21.76 20.22-22.46ZM33.22-6.40L33.22-6.40L33.22-6.40Q33.22-8.13 34.11-12.48L34.11-12.48L37.50-29.76L33.73-29.76L33.98-31.68L33.98-31.68Q41.66-33.98 49.09-39.62L49.09-39.62L52.16-39.62L50.62-32.64L55.62-32.64L55.04-29.76L50.11-29.76L46.85-12.48L46.85-12.48Q46.02-8.51 46.02-7.17L46.02-7.17L46.02-7.17Q46.02-4.10 48.70-3.46L48.70-3.46L48.70-3.46Q48.06-1.28 45.76 0L45.76 0L45.76 0Q43.46 1.28 40.19 1.28L40.19 1.28L40.19 1.28Q36.93 1.28 35.07-0.77L35.07-0.77L35.07-0.77Q33.22-2.82 33.22-6.40ZM75.33-17.98L75.33-17.98L75.33-17.98Q77.63-22.08 77.63-26.24L77.63-26.24L77.63-26.24Q77.63-28.99 75.65-28.99L75.65-28.99L75.65-28.99Q74.11-28.99 72.51-26.37L72.51-26.37L72.51-26.37Q70.85-23.74 70.34-20.35L70.34-20.35L67.01 0L53.76 1.28L60.29-32.64L70.85-33.92L69.70-27.46L69.70-27.46Q72.83-33.92 79.87-33.92L79.87-33.92L79.87-33.92Q83.58-33.92 85.60-32L85.60-32L85.60-32Q87.62-30.08 87.62-26.14L87.62-26.14L87.62-26.14Q87.62-22.21 85.02-19.71L85.02-19.71L85.02-19.71Q82.43-17.22 78.02-17.22L78.02-17.22L78.02-17.22Q76.10-17.22 75.33-17.98ZM114.56-10.82L114.56-10.82L114.56-10.82Q116.16-9.73 116.16-7.33L116.16-7.33L116.16-7.33Q116.16-4.93 114.94-3.39L114.94-3.39L114.94-3.39Q113.73-1.86 111.74-0.83L111.74-0.83L111.74-0.83Q107.65 1.28 103.23 1.28L103.23 1.28L103.23 1.28Q98.82 1.28 96.22 0.32L96.22 0.32L96.22 0.32Q93.63-0.64 91.90-2.43L91.90-2.43L91.90-2.43Q88.51-5.82 88.51-12.03L88.51-12.03L88.51-12.03Q88.51-21.70 93.76-27.58L93.76-27.58L93.76-27.58Q99.39-33.92 109.18-33.92L109.18-33.92L109.18-33.92Q115.26-33.92 118.27-31.36L118.27-31.36L118.27-31.36Q120.51-29.44 120.51-26.30L120.51-26.30L120.51-26.30Q120.51-15.04 101.06-15.04L101.06-15.04L101.06-15.04Q100.80-13.38 100.80-11.97L100.80-11.97L100.80-11.97Q100.80-9.02 102.11-7.90L102.11-7.90L102.11-7.90Q103.42-6.78 105.86-6.78L105.86-6.78L105.86-6.78Q108.29-6.78 110.88-7.90L110.88-7.90L110.88-7.90Q113.47-9.02 114.56-10.82ZM101.50-17.79L101.50-17.79L101.50-17.79Q106.05-17.79 108.67-20.61L108.67-20.61L108.67-20.61Q111.30-23.30 111.30-27.58L111.30-27.58L111.30-27.58Q111.30-29.06 110.75-29.86L110.75-29.86L110.75-29.86Q110.21-30.66 109.12-30.66L109.12-30.66L109.12-30.66Q108.03-30.66 107.10-30.24L107.10-30.24L107.10-30.24Q106.18-29.82 105.22-28.42L105.22-28.42L105.22-28.42Q102.85-25.22 101.50-17.79ZM125.47-1.92L125.47-1.92L125.47-1.92Q123.97-3.58 123.30-6.21L123.30-6.21L123.30-6.21Q122.62-8.83 122.62-13.12L122.62-13.12L122.62-13.12Q122.62-17.41 124.10-21.31L124.10-21.31L124.10-21.31Q125.57-25.22 128.26-28.03L128.26-28.03L128.26-28.03Q133.76-33.92 142.85-33.92L142.85-33.92L142.85-33.92Q146.11-33.92 148.48-32.83L148.48-32.83L159.42-33.92L154.69-8.96L154.69-8.96Q154.50-8.19 154.50-6.78L154.50-6.78L154.50-6.78Q154.50-5.38 155.36-4.48L155.36-4.48L155.36-4.48Q156.22-3.58 157.50-3.46L157.50-3.46L157.50-3.46Q156.86-1.28 154.53 0L154.53 0L154.53 0Q152.19 1.28 149.57 1.28L149.57 1.28L149.57 1.28Q146.94 1.28 145.18 0.29L145.18 0.29L145.18 0.29Q143.42-0.70 142.91-2.37L142.91-2.37L142.91-2.37Q141.89-0.77 139.71 0.26L139.71 0.26L139.71 0.26Q137.54 1.28 134.62 1.28L134.62 1.28L134.62 1.28Q131.71 1.28 129.34 0.51L129.34 0.51L129.34 0.51Q126.98-0.26 125.47-1.92ZM138.98-27.90L138.98-27.90L138.98-27.90Q138.24-26.75 137.60-24.80L137.60-24.80L137.60-24.80Q136.96-22.85 135.90-17.63L135.90-17.63L135.90-17.63Q134.85-12.42 134.85-8.70L134.85-8.70L134.85-8.70Q134.85-4.99 135.42-3.90L135.42-3.90L135.42-3.90Q136-2.82 137.02-2.82L137.02-2.82L137.02-2.82Q139.07-2.82 140.58-4.77L140.58-4.77L140.58-4.77Q142.08-6.72 142.66-10.18L142.66-10.18L146.05-28.93L146.05-28.93Q144.70-30.08 143.14-30.08L143.14-30.08L143.14-30.08Q141.57-30.08 140.64-29.57L140.64-29.57L140.64-29.57Q139.71-29.06 138.98-27.90ZM208.96 1.28L208.96 1.28L208.96 1.28Q201.22 1.28 201.22-4.74L201.22-4.74L201.22-4.74Q201.22-7.36 202.34-12.45L202.34-12.45L202.34-12.45Q203.46-17.54 203.84-19.58L203.84-19.58L203.84-19.58Q204.74-24.26 204.74-25.73L204.74-25.73L204.74-25.73Q204.74-28.99 202.30-28.99L202.30-28.99L202.30-28.99Q200.70-28.99 199.17-26.78L199.17-26.78L199.17-26.78Q197.63-24.58 196.93-20.16L196.93-20.16L192.96 0L180.48 1.28L183.94-16.13L183.94-16.13Q184.51-19.01 185.02-22.27L185.02-22.27L185.02-22.27Q185.54-25.54 185.54-26.05L185.54-26.05L185.54-26.05Q185.54-28.99 183.36-28.99L183.36-28.99L183.36-28.99Q181.89-28.99 180.29-26.82L180.29-26.82L180.29-26.82Q178.69-24.64 177.79-20.16L177.79-20.16L173.89 0L161.28 1.28L168-32.64L178.43-33.92L177.34-27.46L177.34-27.46Q179.01-30.91 182.08-32.42L182.08-32.42L182.08-32.42Q185.15-33.92 189.95-33.92L189.95-33.92L189.95-33.92Q192.70-33.92 194.50-32.58L194.50-32.58L194.50-32.58Q196.29-31.23 196.86-29.06L196.86-29.06L196.86-29.06Q197.95-31.30 200.74-32.61L200.74-32.61L200.74-32.61Q203.52-33.92 206.94-33.92L206.94-33.92L206.94-33.92Q210.37-33.92 212.06-33.18L212.06-33.18L212.06-33.18Q213.76-32.45 214.78-31.23L214.78-31.23L214.78-31.23Q216.51-28.99 216.51-24.90L216.51-24.90L216.51-24.90Q216.51-20.86 214.78-12.48L214.78-12.48L214.78-12.48Q213.89-8.38 213.89-6.88L213.89-6.88L213.89-6.88Q213.89-5.38 214.75-4.48L214.75-4.48L214.75-4.48Q215.62-3.58 216.90-3.46L216.90-3.46L216.90-3.46Q216.26-1.28 214.05 0L214.05 0L214.05 0Q211.84 1.28 208.96 1.28ZM237.12-3.52L237.12-3.52L237.12-3.52Q235.14 1.28 228.80 1.28L228.80 1.28L228.80 1.28Q225.60 1.28 223.55-0.96L223.55-0.96L223.55-0.96Q221.89-2.82 221.89-4.93L221.89-4.93L221.89-4.93Q221.89-9.73 224.13-20.22L224.13-20.22L228.80-44.80L241.79-46.08L235.58-13.70L235.58-13.70Q234.50-8.96 234.50-7.30L234.50-7.30L234.50-7.30Q234.50-3.65 237.12-3.52ZM262.91-7.23L262.91-7.23L262.91-7.23Q259.58-3.78 253.50-3.78L253.50-3.78L253.50-3.78Q245.89-3.78 244.29-9.34L244.29-9.34L244.29-9.34Q243.78-11.01 243.78-12.86L243.78-12.86L243.78-12.86Q243.78-14.72 244.16-16.64L244.16-16.64L247.17-32.64L260.16-33.92L256.64-15.30L256.64-15.30Q256.51-14.46 256.32-13.57L256.32-13.57L256.32-13.57Q256.13-12.67 256.13-11.74L256.13-11.74L256.13-11.74Q256.13-10.82 256.45-10.21L256.45-10.21L256.45-10.21Q256.77-9.60 257.22-9.22L257.22-9.22L257.22-9.22Q257.98-8.70 259.36-8.70L259.36-8.70L259.36-8.70Q260.74-8.70 261.92-10.37L261.92-10.37L261.92-10.37Q263.10-12.03 263.68-14.91L263.68-14.91L267.20-32.64L279.81-33.92L275.01-8.77L275.01-8.77Q272.64 3.52 267.78 8.38L267.78 8.38L267.78 8.38Q265.28 10.88 262.05 11.87L262.05 11.87L262.05 11.87Q258.82 12.86 254.66 12.86L254.66 12.86L254.66 12.86Q247.94 12.86 244.10 10.75L244.10 10.75L244.10 10.75Q240.26 8.64 240.26 5.12L240.26 5.12L240.26 5.12Q240.26 2.50 242.24 0.99L242.24 0.99L242.24 0.99Q244.22-0.51 247.30-0.51L247.30-0.51L247.30-0.51Q249.98-0.51 252.03 0.64L252.03 0.64L252.03 0.64Q253.25 1.34 253.82 2.24L253.82 2.24L253.82 2.24Q252.35 3.52 252.35 5.63L252.35 5.63L252.35 5.63Q252.35 8.45 254.91 8.45L254.91 8.45L254.91 8.45Q259.14 8.45 261.57-1.28L261.57-1.28L261.57-1.28Q262.27-4.16 262.91-7.23Z" fill="url(#editing-glowing-gradient)"></path></g></g><style>text {
  font-size: 64px;
  font-family: Arial Black;
  dominant-baseline: central;
  text-anchor: middle;
}</style></svg>